<?xml version="1.0" encoding="utf-8"?>
<!-- Generator: Adobe Illustrator 16.0.0, SVG Export Plug-In . SVG Version: 6.00 Build 0)  -->
<!DOCTYPE svg PUBLIC "-//W3C//DTD SVG 1.1//EN" "http://www.w3.org/Graphics/SVG/1.1/DTD/svg11.dtd">
<svg version="1.1" id="Calque_1" xmlns="http://www.w3.org/2000/svg" xmlns:xlink="http://www.w3.org/1999/xlink" x="0px" y="0px"
	 width="130.667px" height="110.333px" viewBox="0 0 130.667 110.333" enable-background="new 0 0 130.667 110.333"
	 xml:space="preserve">
<g id="Calque_2" display="none">
	<rect display="inline" fill="#C1282D" stroke="#000000" stroke-miterlimit="10" width="130.667" height="110.333"/>
</g>
<rect x="2.667" y="37.335" fill="none" stroke="#000000" stroke-width="4" stroke-miterlimit="10" width="125" height="14"/>
<rect x="16.667" y="51.668" fill="none" stroke="#000000" stroke-width="4" stroke-miterlimit="10" width="98.667" height="14"/>
<rect x="24.333" y="66.334" fill="none" stroke="#000000" stroke-width="4" stroke-miterlimit="10" width="83" height="40.832"/>
<rect x="38.667" y="66.334" fill="none" stroke="#000000" stroke-width="4" stroke-miterlimit="10" width="16.667" height="40.832"/>
<rect x="73.333" y="66.334" fill="none" stroke="#000000" stroke-width="4" stroke-miterlimit="10" width="16.666" height="40.834"/>
<g id="Calque_3">
</g>
<rect x="3" y="125.083" fill="none" width="176" height="41.5"/>
<text transform="matrix(1 0 0 1 3 145.3149)" display="none" fill="#FFF5F5" font-family="'LithosPro-Regular'" font-size="34">Date’Art</text>
<g>
	<path fill="#FFF5F5" d="M4.2,21.425c0-0.588-0.028-6.496-0.14-7.28c1.596,0,4.704-0.028,7.14,0.28
		c9.128,1.148,10.248,5.208,10.248,7.168c0,8.68-11.032,12.292-17.416,12.292C4.144,32.597,4.2,25.653,4.2,24.896V21.425z
		 M6.72,31.42c7.644-0.672,11.984-5.18,11.984-9.1c0-4.256-4.732-6.16-11.984-6.076V31.42z"/>
	<path fill="#FFF5F5" d="M21.672,33.017c1.344-2.38,8.624-15.848,9.184-16.772h0.056c2.156,3.388,8.204,14.112,9.856,16.604
		L38.5,34.221c-0.448-0.896-3.08-5.6-3.332-6.02l-8.652,0.336c-0.336,0.756-2.296,4.9-2.688,5.712L21.672,33.017z M34.3,26.493
		c-0.28-0.532-3.22-5.908-3.472-6.3c-0.364,0.56-3.136,6.188-3.36,6.58L34.3,26.493z"/>
	<path fill="#FFF5F5" d="M46.172,33.745c0.14-0.616,0.168-7.56,0.168-11.34v-3.332c-2.884,0-6.496,0.112-6.86,0.224v-2.268
		c0.728,0.196,6.748,0.28,7.028,0.28h2.24c0.476,0,6.02-0.084,6.832-0.28v2.268c-0.056-0.112-4.76-0.224-6.804-0.224v3.696
		c0,4.844,0.252,10.5,0.308,10.976H46.172z"/>
	<path fill="#FFF5F5" d="M68.068,33.997c-0.84,0-8.512-0.252-9.016-0.252c0.084-1.26,0.084-6.356,0.084-6.916v-3.164
		c0-0.392-0.056-6.132-0.084-6.58c0.616,0,7.252-0.364,8.512-0.448l0.111,2.016c-1.092,0-5.684,0.112-6.104,0.112v5.824
		c0.476,0,3.724-0.112,5.264-0.252l0.084,2.044c-0.42,0-1.624-0.028-2.799-0.056c-1.148,0-2.268-0.028-2.548-0.028v5.656
		c0.616,0,4.032,0.056,6.412-0.084L68.068,33.997z"/>
	<path fill="#FFF5F5" d="M72.072,13.697l2.24,1.008l-2.716,4.844l-1.093-0.504L72.072,13.697z"/>
	<path fill="#FFF5F5" d="M74.144,32.821c1.54-2.688,9.604-18.592,10.275-19.656h0.057c2.463,3.976,9.1,16.604,11.004,19.516
		l-2.381,1.568c-0.559-1.064-3.527-6.804-3.836-7.252l-9.715,0.392c-0.336,0.532-2.633,5.936-3.108,6.888L74.144,32.821z
		 M88.423,25.205c-0.307-0.616-3.752-7.14-4.031-7.588c-0.42,0.616-3.641,7.476-3.893,7.924L88.423,25.205z"/>
	<path fill="#FFF5F5" d="M102.115,26.465c0,0.896,0.084,6.916,0.141,7.28h-2.633c0.084-0.56,0.057-8.12,0.057-8.624v-1.932
		c0-0.728-0.057-5.656-0.141-6.104c1.205,0,3.416-0.056,5.545,0.196c3.359,0.392,5.32,1.764,5.32,3.836
		c0,1.96-1.512,3.64-3.613,4.872c0.645,0.868,5.152,5.796,5.881,6.496l-1.932,1.708c-0.281-0.336-6.049-7.392-6.805-8.4
		c1.26-0.644,3.809-1.932,3.809-4.312c0-1.12-0.869-2.548-5.629-2.576V26.465z"/>
	<path fill="#FFF5F5" d="M119.783,33.745c0.141-0.616,0.168-7.56,0.168-11.34v-3.332c-2.883,0-6.496,0.112-6.859,0.224v-2.268
		c0.729,0.196,6.748,0.28,7.027,0.28h2.24c0.477,0,6.02-0.084,6.832-0.28v2.268c-0.055-0.112-4.76-0.224-6.803-0.224v3.696
		c0,4.844,0.252,10.5,0.307,10.976H119.783z"/>
</g>
</svg>
